<mxfile host="app.diagrams.net" modified="2023-09-24T04:28:54.708Z" agent="Mozilla/5.0 (Windows NT 10.0; Win64; x64) AppleWebKit/537.36 (KHTML, like Gecko) Chrome/116.0.0.0 Safari/537.36" version="21.6.6" etag="BlIChbWVdR25_RYTnqtI" type="github">
  <diagram name="Page-1" id="KtNU8zT1IJFchBs4VJ1d">
    <mxGraphModel>
      <root>
        <mxCell id="0" />
        <mxCell id="1" parent="0" />
      </root>
    </mxGraphModel>
  </diagram>
</mxfile>
